<svg width="2000" height="1343" viewBox="0 0 2000 1343" fill="none" xmlns="http://www.w3.org/2000/svg">
<g clip-path="url(#clip0_308_334)">
<rect width="2000" height="1342.64" fill="url(#paint0_linear_308_334)"/>
<path d="M1049.53 523.342C1046.91 523.342 1044.56 522.583 1042.88 521.388C1041.2 520.191 1040.24 518.593 1040.24 516.89C1040.24 515.188 1041.2 513.589 1042.88 512.393C1044.56 511.197 1046.91 510.439 1049.53 510.439C1052.15 510.439 1054.5 511.197 1056.18 512.393C1057.86 513.589 1058.82 515.188 1058.82 516.89C1058.82 518.593 1057.86 520.191 1056.18 521.388C1054.5 522.583 1052.15 523.342 1049.53 523.342ZM223.136 2147.4C220.515 2147.4 218.166 2146.64 216.489 2145.44C214.81 2144.25 213.843 2142.65 213.843 2140.95C213.843 2139.24 214.81 2137.65 216.489 2136.45C218.166 2135.25 220.515 2134.49 223.136 2134.49C225.758 2134.49 228.106 2135.25 229.784 2136.45C231.462 2137.65 232.429 2139.24 232.429 2140.95C232.429 2142.65 231.462 2144.25 229.784 2145.44C228.106 2146.64 225.758 2147.4 223.136 2147.4ZM-38.9433 1534.36C-41.565 1534.36 -43.9133 1533.6 -45.5908 1532.41C-47.2694 1531.21 -48.2364 1529.61 -48.2364 1527.91C-48.2364 1526.21 -47.2694 1524.61 -45.5908 1523.41C-43.9133 1522.22 -41.565 1521.46 -38.9433 1521.46C-36.3216 1521.46 -33.9732 1522.22 -32.2958 1523.41C-30.6172 1524.61 -29.6502 1526.21 -29.6502 1527.91C-29.6502 1529.61 -30.6172 1531.21 -32.2958 1532.41C-33.9732 1533.6 -36.3216 1534.36 -38.9433 1534.36ZM1206.96 1339.75C1204.34 1339.75 1201.99 1338.99 1200.32 1337.79C1198.64 1336.6 1197.67 1335 1197.67 1333.29C1197.67 1331.59 1198.64 1329.99 1200.32 1328.8C1201.99 1327.6 1204.34 1326.84 1206.96 1326.84C1209.59 1326.84 1211.93 1327.6 1213.61 1328.8C1215.29 1329.99 1216.26 1331.59 1216.26 1333.29C1216.26 1335 1215.29 1336.6 1213.61 1337.79C1211.93 1338.99 1209.59 1339.75 1206.96 1339.75ZM-117.014 1979.79C-119.635 1979.79 -121.984 1979.03 -123.661 1977.84C-125.34 1976.64 -126.307 1975.04 -126.307 1973.34C-126.307 1971.64 -125.34 1970.04 -123.661 1968.84C-121.984 1967.65 -119.635 1966.89 -117.014 1966.89C-114.392 1966.89 -112.044 1967.65 -110.366 1968.84C-108.687 1970.04 -107.72 1971.64 -107.72 1973.34C-107.72 1975.04 -108.687 1976.64 -110.366 1977.84C-112.043 1979.03 -114.392 1979.79 -117.014 1979.79ZM-20.0808 1897.09C-22.7026 1897.09 -25.0509 1896.33 -26.7283 1895.13C-28.407 1893.94 -29.374 1892.34 -29.374 1890.64C-29.374 1888.93 -28.407 1887.34 -26.7283 1886.14C-25.0509 1884.94 -22.7026 1884.19 -20.0808 1884.19C-17.4591 1884.19 -15.1108 1884.94 -13.4334 1886.14C-11.7547 1887.34 -10.7877 1888.93 -10.7877 1890.64C-10.7877 1892.34 -11.7547 1893.94 -13.4334 1895.13C-15.1108 1896.33 -17.4591 1897.09 -20.0808 1897.09ZM792.254 452.806C789.633 452.806 787.284 452.048 785.607 450.852C783.928 449.656 782.961 448.057 782.961 446.355C782.961 444.652 783.928 443.054 785.607 441.857C787.284 440.662 789.633 439.903 792.254 439.903C794.876 439.903 797.224 440.662 798.902 441.857C800.581 443.054 801.547 444.652 801.547 446.355C801.547 448.057 800.581 449.656 798.902 450.852C797.224 452.048 794.876 452.806 792.254 452.806ZM886.759 405.956C884.137 405.956 881.789 405.198 880.112 404.002C878.433 402.806 877.466 401.207 877.466 399.505C877.466 397.802 878.433 396.204 880.112 395.007C881.789 393.812 884.137 393.053 886.759 393.053C889.381 393.053 891.729 393.812 893.407 395.007C895.085 396.204 896.052 397.802 896.052 399.505C896.052 401.207 895.085 402.806 893.407 404.002C891.729 405.198 889.381 405.956 886.759 405.956ZM1345.72 486.935C1343.1 486.935 1340.75 486.177 1339.07 484.981C1337.39 483.785 1336.42 482.186 1336.42 480.484C1336.42 478.781 1337.39 477.183 1339.07 475.986C1340.75 474.791 1343.1 474.032 1345.72 474.032C1348.34 474.032 1350.69 474.791 1352.37 475.986C1354.04 477.183 1355.01 478.781 1355.01 480.484C1355.01 482.186 1354.04 483.785 1352.37 484.981C1350.69 486.177 1348.34 486.935 1345.72 486.935ZM1215.54 716.235C1212.92 716.235 1210.57 715.477 1208.89 714.281C1207.22 713.085 1206.25 711.486 1206.25 709.784C1206.25 708.081 1207.22 706.483 1208.89 705.286C1210.57 704.091 1212.92 703.332 1215.54 703.332C1218.16 703.332 1220.51 704.091 1222.19 705.286C1223.87 706.483 1224.83 708.081 1224.83 709.784C1224.83 711.486 1223.87 713.085 1222.19 714.281C1220.51 715.477 1218.16 716.235 1215.54 716.235ZM1287.01 857.214C1284.39 857.214 1282.04 856.455 1280.37 855.26C1278.69 854.063 1277.72 852.464 1277.72 850.762C1277.72 849.06 1278.69 847.461 1280.37 846.265C1282.04 845.069 1284.39 844.311 1287.01 844.311C1289.64 844.311 1291.98 845.069 1293.66 846.265C1295.34 847.461 1296.31 849.06 1296.31 850.762C1296.31 852.464 1295.34 854.063 1293.66 855.26C1291.98 856.455 1289.64 857.214 1287.01 857.214ZM-19.1532 504.535C-21.7749 504.535 -24.1232 503.777 -25.8007 502.581C-27.4793 501.385 -28.4463 499.786 -28.4463 498.084C-28.4463 496.382 -27.4793 494.783 -25.8007 493.586C-24.1232 492.391 -21.7749 491.632 -19.1532 491.632C-16.5315 491.632 -14.1831 492.391 -12.5057 493.586C-10.8271 494.783 -9.86007 496.382 -9.86008 498.084C-9.86008 499.786 -10.8271 501.385 -12.5057 502.581C-14.1831 503.777 -16.5314 504.535 -19.1532 504.535ZM-118.105 706.735C-120.727 706.735 -123.075 705.977 -124.752 704.781C-126.431 703.585 -127.398 701.986 -127.398 700.284C-127.398 698.581 -126.431 696.983 -124.752 695.786C-123.075 694.591 -120.727 693.832 -118.105 693.832C-115.483 693.832 -113.135 694.591 -111.457 695.786C-109.779 696.983 -108.812 698.581 -108.812 700.284C-108.812 701.986 -109.779 703.585 -111.457 704.781C-113.135 705.977 -115.483 706.735 -118.105 706.735ZM442.624 316.436C440.002 316.436 437.653 315.678 435.976 314.482C434.297 313.285 433.33 311.687 433.33 309.984C433.33 308.282 434.297 306.684 435.976 305.487C437.653 304.291 440.002 303.533 442.624 303.533C445.245 303.533 447.594 304.291 449.271 305.487C450.95 306.684 451.917 308.282 451.917 309.984C451.917 311.687 450.95 313.285 449.271 314.482C447.594 315.678 445.245 316.436 442.624 316.436ZM432.126 309.984C432.126 312.178 433.374 314.106 435.277 315.462C437.181 316.82 439.78 317.64 442.624 317.64C445.467 317.64 448.066 316.82 449.97 315.462C451.873 314.106 453.121 312.178 453.121 309.984C453.121 307.791 451.873 305.863 449.97 304.507C448.066 303.149 445.467 302.329 442.624 302.329C439.78 302.329 437.181 303.149 435.277 304.507C433.374 305.863 432.126 307.791 432.126 309.984ZM1188.06 1017.1C1185.44 1017.1 1183.09 1016.34 1181.41 1015.14C1179.74 1013.95 1178.77 1012.35 1178.77 1010.64C1178.77 1008.94 1179.74 1007.34 1181.41 1006.15C1183.09 1004.95 1185.44 1004.19 1188.06 1004.19C1190.68 1004.19 1193.03 1004.95 1194.71 1006.15C1196.39 1007.34 1197.35 1008.94 1197.35 1010.64C1197.35 1012.35 1196.39 1013.95 1194.71 1015.14C1193.03 1016.34 1190.68 1017.1 1188.06 1017.1ZM-96.2524 1685.36C-98.8741 1685.36 -101.222 1684.6 -102.9 1683.41C-104.579 1682.21 -105.546 1680.61 -105.546 1678.91C-105.546 1677.21 -104.579 1675.61 -102.9 1674.41C-101.222 1673.22 -98.8741 1672.46 -96.2524 1672.46C-93.6307 1672.46 -91.2824 1673.22 -89.6049 1674.41C-87.9263 1675.61 -86.9593 1677.21 -86.9593 1678.91C-86.9593 1680.61 -87.9263 1682.21 -89.6049 1683.41C-91.2824 1684.6 -93.6307 1685.36 -96.2524 1685.36ZM330.478 593.88C327.856 593.88 325.508 593.121 323.83 591.926C322.152 590.729 321.185 589.131 321.185 587.428C321.185 585.726 322.152 584.127 323.83 582.931C325.508 581.735 327.856 580.977 330.478 580.977C333.1 580.977 335.448 581.735 337.125 582.931C338.804 584.127 339.771 585.726 339.771 587.428C339.771 589.131 338.804 590.729 337.125 591.926C335.448 593.121 333.1 593.88 330.478 593.88ZM2041.7 1183.35C1939.21 1247.9 1831.11 1292.9 1739.2 1313.48C1693.25 1323.78 1651.37 1327.96 1616.27 1325.44C1581.16 1322.92 1552.91 1313.7 1534.15 1297.25C1515.41 1280.82 1507.84 1258.69 1510.23 1232.66C1512.63 1206.6 1525.02 1176.64 1546.2 1144.67C1588.56 1080.72 1666 1008.87 1768.5 944.322C1871 879.773 1979.1 834.77 2071 814.185C2116.95 803.893 2158.83 799.71 2193.93 802.229C2229.04 804.75 2257.29 813.971 2276.06 830.421C2294.8 846.848 2302.36 868.979 2299.97 895.01C2297.57 921.067 2285.19 951.026 2264 983.002C2221.64 1046.95 2144.2 1118.79 2041.7 1183.35ZM753.129 232.401C650.646 296.942 538.976 338.803 441.293 354.315C343.568 369.833 260.008 358.956 213.57 318.251C190.374 297.918 178.615 272.052 177.204 242.659C175.793 213.25 184.741 180.28 203.024 145.784C239.592 76.7884 313.432 1.8181 415.922 -62.7268C518.406 -127.268 630.076 -169.129 727.759 -184.64C825.484 -200.158 909.044 -189.282 955.482 -148.576C978.678 -128.243 990.437 -102.377 991.848 -72.9849C993.259 -43.5755 984.311 -10.6058 966.028 23.8906C929.46 92.8861 855.619 167.856 753.129 232.401Z" stroke="url(#paint1_linear_308_334)" stroke-width="1.20417"/>
</g>
<defs>
<linearGradient id="paint0_linear_308_334" x1="2101.5" y1="-18.5831" x2="793.904" y2="1855.55" gradientUnits="userSpaceOnUse">
<stop stop-color="#01B8E3"/>
<stop offset="0.344233"/>
<stop offset="0.764539" stop-color="#172E56"/>
<stop offset="1" stop-color="#3D7AE5"/>
</linearGradient>
<linearGradient id="paint1_linear_308_334" x1="955.879" y1="-149.029" x2="401.316" y2="483.624" gradientUnits="userSpaceOnUse">
<stop stop-color="#4A00C5" stop-opacity="0"/>
<stop offset="1" stop-color="#01B8E3"/>
</linearGradient>
<clipPath id="clip0_308_334">
<rect width="2000" height="1342.64" fill="white"/>
</clipPath>
</defs>
</svg>
